<svg id="Capa_1" enable-background="new 0 0 512 512" height="512" viewBox="0 0 512 512" width="512" xmlns="http://www.w3.org/2000/svg"><g><path d="m467 76h-422c-24.813 0-45 20.187-45 45v270c0 24.813 20.187 45 45 45h422c24.813 0 45-20.187 45-45v-270c0-24.813-20.187-45-45-45zm-115.27 30-15 30h-161.459l-15-30zm-306.73 0h81.73l25.854 51.708c2.54 5.082 7.734 8.292 13.416 8.292h180c5.682 0 10.876-3.21 13.416-8.292l25.854-51.708h81.73c8.271 0 15 6.729 15 15v225h-452v-225c0-8.271 6.729-15 15-15zm422 300h-422c-8.271 0-15-6.729-15-15v-15h452v15c0 8.271-6.729 15-15 15z"/><circle cx="76" cy="151" r="15"/><circle cx="436" cy="151" r="15"/><path d="m151 316h210c33.084 0 60-26.916 60-60s-26.916-60-60-60h-210c-33.084 0-60 26.916-60 60s26.916 60 60 60zm51.928-30c5.123-8.833 8.072-19.075 8.072-30s-2.949-21.167-8.072-30h106.144c-5.123 8.833-8.072 19.075-8.072 30s2.949 21.167 8.072 30zm188.072-30c0 16.542-13.458 30-30 30s-30-13.458-30-30 13.458-30 30-30 30 13.458 30 30zm-240-30c16.542 0 30 13.458 30 30s-13.458 30-30 30-30-13.458-30-30 13.458-30 30-30z"/></g></svg>